<svg width="272" height="420" viewBox="0 0 272 420" fill="none" xmlns="http://www.w3.org/2000/svg">
<path fill-rule="evenodd" clip-rule="evenodd" d="M205.601 384.49C157.458 395.603 101.641 439.516 63.1019 409.921C23.8387 379.77 61.4163 317.368 56.0636 269.656C52.2422 235.593 32.6079 205.25 36.3176 171.176C40.7693 130.286 48.1412 86.6458 79.1117 57.9579C112.039 27.4576 159.682 16.4865 205.601 14.3679C253.287 12.1678 306.28 15.0513 341.338 45.8592C375.398 75.7912 368.629 126.764 381.659 169.084C394.157 209.674 432.281 249.093 416.036 288.466C399.768 327.895 345.529 335.674 305.364 354.002C273.084 368.732 240.397 376.459 205.601 384.49Z" fill="#4754EB"/>
<path fill-rule="evenodd" clip-rule="evenodd" d="M85.6436 261.068C66.6715 242.194 75.7264 211.244 74.1878 184.986C72.8204 161.65 67.4498 138.176 77.1746 116.536C87.3531 93.8865 106.331 75.8582 128.779 63.5094C152.087 50.687 179.056 41.0163 205.159 46.1287C230.692 51.1297 245.21 74.6124 265.284 90.2452C288.31 108.177 325.857 116.344 331.251 144.323C336.631 172.23 303.348 192.748 289.994 218.42C276.296 244.754 279.969 283.765 252.113 296.466C224.147 309.217 195.024 281.758 165.054 275.386C138.115 269.657 104.629 279.956 85.6436 261.068Z" fill="#8633B0"/>
</svg>
