<svg width="278" height="633" viewBox="0 0 278 633" fill="none" xmlns="http://www.w3.org/2000/svg">
<path fill-rule="evenodd" clip-rule="evenodd" d="M-6.15382 244.55C44.1072 236.58 98.2828 195.756 140.954 221.302C183.153 246.566 161.16 308.236 174.494 352.7C186.907 394.095 226.787 430.553 216.245 472.379C205.505 514.987 158.372 538.953 120.742 565.956C81.5011 594.115 42.8602 640.492 -6.15382 631.971C-56.3666 623.242 -68.9846 562.671 -102.232 527.192C-125.51 502.352 -155.607 484.73 -171.567 455.458C-189.827 421.969 -209.082 385.313 -199.415 348.954C-189.482 311.597 -156.538 282.295 -120.324 262.732C-86.2356 244.316 -45.1703 250.737 -6.15382 244.55Z" fill="#4754EB"/>
<path fill-rule="evenodd" clip-rule="evenodd" d="M-38.3564 371.013C-15.6082 359.196 7.51502 343.647 32.8928 347.492C57.8904 351.279 73.404 374.799 92.9452 390.906C113.681 407.998 143.397 418.557 150.544 444.468C157.759 470.626 142.845 497.596 128.747 520.708C116.057 541.513 95.3173 553.999 75.2857 567.847C53.1786 583.129 32.789 609.531 6.19402 605.428C-20.4516 601.317 -31.0229 568.989 -48.8503 548.695C-64.0855 531.353 -81.7604 516.839 -90.427 495.442C-100.532 470.494 -112.339 442.329 -101.969 417.55C-91.5604 392.676 -62.2551 383.428 -38.3564 371.013Z" fill="#8633B0"/>
<path fill-rule="evenodd" clip-rule="evenodd" d="M246.45 142.868C254.42 185.949 295.244 232.385 269.698 268.96C244.434 305.131 182.764 286.28 138.3 297.709C96.9047 308.349 60.4475 342.532 18.621 333.496C-23.987 324.29 -47.9532 283.89 -74.9562 251.636C-103.115 218.001 -149.492 184.88 -140.971 142.868C-132.242 99.8287 -71.671 89.0132 -36.1924 60.5152C-11.3525 40.5626 6.27023 14.7652 35.5419 1.08511C69.0311 -14.566 105.687 -31.0703 142.046 -22.7842C179.403 -14.2704 208.705 13.9678 228.268 45.0076C246.684 74.2266 240.263 109.425 246.45 142.868Z" fill="white"/>
</svg>
